<?xml version="1.0" standalone="no"?>
<!DOCTYPE svg PUBLIC "-//W3C//DTD SVG 20010904//EN"
 "http://www.w3.org/TR/2001/REC-SVG-20010904/DTD/svg10.dtd">
<svg version="1.0" xmlns="http://www.w3.org/2000/svg"
 width="2295.000000pt" height="507.000000pt" viewBox="0 0 2295.000000 507.000000"
 preserveAspectRatio="xMidYMid meet">

<g transform="translate(0.000000,507.000000) scale(0.100000,-0.100000)"
fill="#000000" stroke="none">
<path d="M15274 4519 c-188 -10 -303 -31 -464 -85 -263 -87 -370 -185 -370
-339 0 -141 81 -223 295 -300 38 -14 77 -33 87 -42 26 -27 38 -109 38 -272 0
-80 7 -378 16 -661 9 -283 13 -582 9 -665 -9 -235 -25 -408 -37 -423 -7 -8
-57 -36 -112 -64 -202 -101 -231 -135 -231 -273 0 -110 20 -155 96 -215 98
-78 40 -73 1099 -80 l945 -6 195 -27 c228 -31 258 -32 330 -11 43 13 67 29
115 78 70 72 145 190 145 230 0 19 6 29 20 33 28 7 92 140 94 192 0 23 6 41
12 41 14 0 31 64 55 205 21 121 -5 286 -63 399 -32 62 -113 141 -171 167 -68
30 -194 33 -247 5 -78 -41 -96 -69 -147 -225 -57 -176 -127 -273 -238 -329
-104 -52 -330 -72 -435 -38 -99 31 -126 70 -141 204 -12 101 -15 1485 -4 1635
10 131 21 146 154 213 57 30 115 64 129 76 59 56 85 162 62 259 -36 151 -168
242 -409 284 -184 31 -584 48 -827 34z m461 -99 c214 -10 370 -29 454 -54 171
-51 264 -164 231 -281 -16 -57 -46 -83 -170 -145 -129 -65 -158 -105 -176
-245 -3 -27 -8 -365 -11 -750 -5 -729 3 -961 35 -1060 21 -66 82 -126 158
-156 52 -20 76 -23 204 -23 221 -1 334 38 450 154 78 77 125 163 169 307 43
139 81 171 190 161 100 -10 184 -89 231 -219 26 -69 28 -265 4 -361 -27 -109
-102 -302 -124 -318 -4 -3 -32 -45 -63 -95 -60 -97 -125 -167 -170 -184 -43
-16 -103 -13 -327 16 l-205 27 -930 6 c-867 5 -933 6 -970 23 -80 36 -117 90
-118 174 -1 74 20 97 144 163 140 74 174 95 194 127 47 71 54 542 26 1578 -14
472 -17 503 -70 554 -27 26 -45 35 -181 90 -118 48 -180 112 -180 186 0 64 65
142 157 188 65 33 283 103 365 117 151 26 404 34 683 20z"/>
<path d="M18362 4470 c-250 -32 -531 -138 -649 -245 -97 -88 -144 -212 -122
-329 16 -89 52 -158 112 -211 103 -94 205 -125 407 -125 194 0 375 32 540 95
191 74 301 159 360 279 31 63 34 77 34 160 0 114 -24 174 -96 242 -55 51 -164
106 -248 124 -75 16 -249 21 -338 10z m375 -123 c95 -33 165 -85 193 -143 19
-38 22 -58 18 -123 -5 -93 -32 -146 -103 -209 -209 -184 -765 -281 -989 -173
-71 35 -103 62 -142 121 -26 38 -29 52 -29 124 0 99 20 141 97 211 61 54 128
90 251 134 197 69 325 91 502 87 107 -3 143 -8 202 -29z"/>
<path d="M1005 4410 c-428 -49 -648 -173 -650 -367 0 -52 4 -67 30 -105 41
-58 106 -100 217 -139 120 -43 154 -74 162 -150 14 -139 29 -755 30 -1254 1
-493 -1 -556 -16 -605 -25 -80 -62 -118 -169 -174 -164 -85 -191 -116 -192
-216 -1 -106 63 -192 168 -227 45 -16 143 -18 985 -23 l935 -6 210 -28 c223
-29 279 -29 336 -2 110 52 272 302 350 538 49 152 58 357 19 463 -56 155 -165
248 -290 249 -73 1 -103 -8 -145 -46 -38 -33 -64 -83 -85 -163 -21 -82 -75
-186 -128 -246 -95 -106 -242 -159 -436 -159 -238 0 -309 51 -335 240 -12 85
-17 1560 -6 1650 9 72 24 121 44 143 8 10 66 43 128 73 128 61 157 91 175 177
16 77 -7 152 -68 217 -73 78 -184 119 -409 150 -102 14 -755 21 -860 10z"/>
<path d="M7610 4374 c-235 -28 -491 -109 -612 -192 -59 -41 -115 -99 -141
-147 -32 -58 -32 -212 0 -270 51 -94 151 -164 272 -191 99 -22 354 -14 491 15
299 64 503 186 558 334 75 200 -35 376 -270 432 -65 15 -237 26 -298 19z"/>
<path d="M12229 4370 c-161 -18 -403 -90 -524 -153 -78 -42 -164 -123 -195
-183 -21 -41 -25 -63 -25 -134 0 -103 24 -160 98 -226 95 -85 191 -114 380
-114 320 1 643 100 786 242 98 97 134 255 83 360 -65 131 -208 202 -428 212
-54 3 -133 1 -175 -4z"/>
<path d="M11115 3648 c-16 -6 -74 -42 -129 -79 -104 -72 -210 -119 -314 -140
-81 -15 -197 -8 -377 26 -203 38 -274 45 -426 46 -167 0 -280 -13 -427 -52
-254 -66 -508 -210 -625 -355 -67 -81 -95 -132 -128 -227 -24 -69 -29 -98 -29
-182 0 -95 15 -186 41 -245 59 -134 88 -176 198 -289 56 -58 62 -67 46 -76
-152 -87 -252 -186 -307 -303 -26 -54 -30 -75 -32 -155 -1 -85 1 -97 32 -159
23 -47 57 -90 114 -147 45 -45 79 -83 77 -85 -2 -2 -23 -13 -45 -24 -134 -68
-209 -233 -177 -390 21 -103 59 -168 153 -263 68 -68 103 -94 175 -131 233
-118 504 -169 889 -169 392 0 675 55 943 181 247 117 412 268 517 474 56 109
76 192 76 310 0 191 -65 336 -204 454 -188 159 -450 186 -1056 105 -399 -52
-560 -26 -560 93 0 61 25 69 172 54 441 -47 939 102 1192 358 85 86 115 132
164 254 25 61 43 209 36 293 l-7 84 72 77 c123 132 190 299 177 441 -13 150
-127 258 -231 221z m-1167 -584 c83 -34 133 -117 164 -268 44 -223 2 -396
-112 -453 -133 -68 -241 14 -296 222 -13 52 -18 107 -19 215 0 130 2 149 22
185 52 98 149 138 241 99z m-464 -2084 c138 -18 335 -23 456 -10 63 6 153 14
200 17 82 5 87 4 118 -22 62 -52 35 -128 -63 -175 -92 -43 -163 -55 -335 -54
-130 0 -168 3 -233 22 -167 48 -257 124 -257 218 0 19 4 24 18 20 9 -3 53 -10
96 -16z"/>
<path d="M18660 3585 c-285 -42 -759 -174 -921 -256 -78 -39 -141 -98 -170
-157 -32 -68 -32 -189 0 -250 28 -55 84 -107 157 -146 95 -51 92 -39 106 -377
8 -218 9 -326 0 -415 -17 -188 -64 -292 -157 -345 -72 -42 -71 -41 -95 -81
-48 -82 -32 -224 34 -311 78 -103 204 -147 511 -178 154 -15 539 -15 660 0
217 28 379 86 458 166 66 66 91 124 91 215 0 107 -34 161 -157 257 -65 50 -85
82 -97 157 -5 29 -9 383 -10 787 -1 450 -6 755 -12 789 -8 44 -19 63 -52 96
-24 25 -58 46 -81 53 -51 14 -156 12 -265 -4z m275 -109 l30 -24 6 -779 c4
-428 10 -800 16 -828 14 -80 50 -141 111 -193 31 -26 75 -66 99 -90 42 -41 43
-44 43 -106 0 -73 -16 -112 -66 -155 -68 -61 -172 -99 -341 -128 -143 -24
-600 -24 -769 0 -193 27 -286 53 -333 94 -62 53 -84 103 -79 179 4 72 18 93
84 125 74 35 134 124 168 249 22 80 40 319 32 425 -4 49 -11 175 -16 279 -10
223 -22 260 -103 311 -26 17 -68 44 -94 60 -61 39 -84 78 -84 147 -2 116 55
172 248 243 325 120 725 212 928 214 81 1 93 -2 120 -23z"/>
<path d="M20365 3593 c-334 -21 -723 -91 -842 -152 -111 -56 -172 -142 -180
-252 -9 -110 19 -152 164 -246 140 -90 135 -70 144 -628 8 -555 12 -585 85
-765 28 -70 150 -235 221 -300 229 -209 641 -257 967 -111 37 17 116 63 175
101 59 39 110 70 113 70 8 0 19 -39 23 -89 9 -91 63 -139 185 -161 156 -29
582 23 830 102 159 50 256 102 331 177 78 79 106 148 95 233 -12 91 -52 146
-133 187 -23 12 -59 35 -78 53 l-36 31 1 741 c1 408 -1 760 -5 784 -10 58 -61
139 -111 174 -80 57 -192 69 -460 48 -282 -22 -630 -88 -743 -140 -69 -33
-151 -103 -151 -130 0 -9 -5 -21 -11 -27 -19 -19 -20 -149 -2 -197 22 -56 44
-79 140 -143 65 -43 85 -62 95 -91 10 -28 13 -140 13 -452 0 -376 -2 -420 -18
-472 -41 -128 -178 -167 -263 -76 -57 61 -57 58 -63 863 -6 679 -7 743 -23
772 -23 41 -72 78 -123 92 -36 10 -215 12 -340 4z m334 -104 c17 -6 37 -21 44
-33 9 -16 28 -200 25 -251 0 -5 -2 -275 -5 -600 -5 -606 -2 -652 35 -735 45
-101 119 -151 222 -151 47 -1 75 6 116 26 103 50 136 120 154 325 19 222 6
751 -21 836 -12 39 -56 80 -145 137 -85 54 -109 93 -102 168 12 122 113 173
463 234 278 49 636 71 727 43 46 -13 83 -48 105 -98 14 -31 16 -122 14 -796
-3 -853 -8 -793 71 -857 24 -19 66 -46 94 -61 62 -34 84 -68 84 -135 0 -61
-28 -112 -87 -158 -149 -117 -526 -215 -883 -229 -204 -8 -271 10 -284 78 -2
13 -9 50 -15 83 -13 75 -47 110 -97 102 -17 -3 -80 -37 -138 -76 -212 -144
-333 -184 -556 -184 -121 -1 -158 3 -225 22 -176 49 -288 129 -398 283 -134
189 -156 316 -157 887 0 387 -7 464 -45 541 -28 55 -85 110 -142 139 -23 12
-58 35 -78 52 -32 28 -35 36 -35 85 0 71 18 113 66 152 67 55 155 82 419 126
285 49 696 72 774 45z"/>
<path d="M4462 3509 c-316 -16 -718 -82 -836 -137 -80 -38 -138 -95 -160 -157
-22 -65 -20 -102 7 -155 18 -37 37 -54 102 -92 44 -27 94 -64 112 -84 63 -72
65 -83 74 -579 8 -437 12 -498 42 -635 64 -286 223 -457 493 -532 69 -19 104
-22 284 -22 199 0 208 0 290 28 110 37 175 70 306 156 59 39 114 70 123 68 11
-2 20 -23 29 -63 24 -112 43 -147 92 -175 43 -24 52 -25 200 -24 382 2 792
101 965 232 66 51 84 77 101 154 12 52 13 75 4 108 -14 53 -65 109 -132 145
-29 15 -66 40 -81 54 l-29 26 3 750 c3 712 2 752 -15 785 -49 93 -103 133
-199 148 -121 19 -502 -11 -747 -59 -281 -55 -362 -90 -424 -183 -21 -31 -26
-51 -26 -98 0 -97 39 -153 153 -219 37 -22 74 -50 82 -62 52 -80 59 -798 9
-977 -26 -92 -94 -143 -194 -144 -69 0 -117 22 -152 73 -57 80 -58 93 -58 831
-1 708 -3 743 -45 790 -48 54 -114 62 -373 49z"/>
<path d="M7930 3508 c-247 -22 -861 -184 -994 -262 -102 -60 -146 -130 -146
-233 0 -108 33 -151 179 -236 88 -52 92 -62 102 -239 26 -453 22 -594 -24
-738 -21 -68 -36 -86 -151 -184 -70 -59 -83 -79 -92 -136 -15 -106 8 -174 83
-240 58 -51 118 -73 278 -101 120 -22 157 -24 485 -24 332 0 362 2 458 23 132
29 221 65 283 114 60 47 90 104 97 183 6 82 -19 138 -84 191 -26 21 -69 59
-96 83 -86 78 -82 36 -86 915 -3 733 -4 771 -22 807 -38 73 -104 92 -270 77z"/>
<path d="M12593 3509 c-254 -22 -801 -164 -988 -255 -109 -54 -164 -134 -165
-239 0 -101 54 -176 164 -228 78 -37 103 -72 110 -154 29 -312 28 -626 -1
-773 -19 -97 -42 -140 -100 -187 -146 -118 -163 -144 -163 -243 0 -75 27 -136
82 -185 70 -64 168 -93 395 -120 178 -21 600 -21 751 0 312 44 462 149 462
325 0 79 -20 120 -83 173 -28 23 -70 60 -94 81 -83 74 -77 14 -83 896 -5 821
-5 816 -48 864 -42 45 -102 57 -239 45z"/>
</g>
</svg>
