<?xml version="1.0" encoding="UTF-8"?>
<svg xmlns="http://www.w3.org/2000/svg" xmlns:xlink="http://www.w3.org/1999/xlink" width="550px" height="px" viewBox="0 0 550 489" version="1.1">
<g id="surface1">
<path style=" stroke:none;fill-rule:nonzero;fill:rgb(60.000002%,0%,0%);fill-opacity:1;" d="M 187.039062 475.511719 C 184.605469 470.683594 181.5 453.5 179.871094 435.816406 C 178.273438 418.488281 177.699219 403.523438 177.332031 369.566406 C 177.023438 340.863281 176.5 319.730469 176.089844 319.300781 C 176.007812 319.214844 174.285156 319.046875 172.261719 318.929688 C 170.238281 318.808594 167.351562 318.621094 165.84375 318.507812 C 164.339844 318.394531 161.777344 318.207031 160.15625 318.09375 C 155.609375 317.769531 142.789062 316.839844 139.609375 316.601562 C 136.46875 316.363281 99.007812 313.339844 93.988281 312.917969 C 92.25 312.773438 85.753906 312.164062 79.550781 311.5625 C 73.351562 310.964844 67.234375 310.382812 65.960938 310.269531 C 60.046875 309.75 51.234375 308.839844 50.882812 308.714844 C 50.714844 308.65625 49.535156 308.507812 48.257812 308.386719 C 45.082031 308.078125 39.84375 307.421875 37.300781 307.007812 C 36.140625 306.820312 34.246094 306.535156 33.085938 306.375 C 27.285156 305.5625 23.46875 304.679688 22.367188 303.894531 L 21.75 303.457031 L 22.210938 303.085938 C 23.027344 302.417969 25.648438 302.046875 33.191406 301.519531 C 48.632812 300.4375 86.640625 300.105469 131.496094 300.65625 C 147.027344 300.847656 160.019531 301.042969 160.367188 301.09375 C 160.714844 301.148438 164.222656 301.210938 168.164062 301.238281 L 175.328125 301.289062 L 175.265625 299.613281 C 175.152344 296.523438 173.34375 262.519531 171.96875 237.59375 C 171.21875 224.019531 170.355469 207.972656 170.050781 201.9375 C 169.746094 195.90625 169.464844 190.863281 169.429688 190.734375 C 169.378906 190.5625 159.042969 190.492188 131.566406 190.480469 C 87.347656 190.457031 84.363281 190.421875 57.214844 189.589844 C 46.875 189.277344 38.292969 188.742188 33.191406 188.101562 C 26.257812 187.230469 23.738281 186.578125 22.464844 185.332031 C 21.59375 184.476562 21.65625 183.875 22.816406 181.980469 C 24.410156 179.371094 24.414062 178.632812 22.859375 175.941406 C 22.390625 175.132812 21.953125 174.125 21.882812 173.699219 C 21.769531 172.996094 21.839844 172.847656 22.679688 172.015625 C 24.179688 170.539062 27.535156 169.582031 34.34375 168.691406 C 37.476562 168.28125 38.566406 168.179688 46.785156 167.566406 C 59.5 166.609375 84.257812 165.976562 115.789062 165.792969 L 140.964844 165.648438 L 131.945312 157.949219 C 126.980469 153.710938 122.824219 150.210938 122.707031 150.167969 C 122.589844 150.125 122.433594 150.179688 122.359375 150.289062 C 122.09375 150.683594 118.101562 153.054688 115.765625 154.207031 C 110.363281 156.867188 102.542969 159.003906 93.988281 160.152344 C 88.386719 160.90625 78.007812 161.082031 74.601562 160.480469 C 72.144531 160.046875 68.546875 159.066406 67.191406 158.457031 C 66.828125 158.292969 66.464844 158.160156 66.386719 158.160156 C 66.308594 158.160156 65.183594 157.625 63.890625 156.976562 C 52.746094 151.378906 45.40625 139.933594 43.621094 125.371094 C 43.230469 122.203125 43.179688 115.421875 43.519531 112.269531 C 44.449219 103.605469 47.042969 95.273438 51.117188 87.832031 C 51.933594 86.339844 52.574219 85.039062 52.539062 84.9375 C 52.503906 84.839844 50.570312 82.78125 48.242188 80.367188 C 45.914062 77.953125 43.496094 75.402344 42.867188 74.695312 C 42.242188 73.988281 40.726562 72.324219 39.507812 71 C 38.285156 69.679688 36.625 67.835938 35.820312 66.910156 C 35.011719 65.984375 34.257812 65.117188 34.140625 64.988281 C 27.464844 57.480469 19.652344 46.992188 15.453125 39.902344 C 13.066406 35.871094 12.589844 35.007812 10.875 31.582031 C 6.910156 23.660156 4.515625 15.824219 4.515625 10.769531 C 4.515625 6.972656 5.269531 6.371094 8.140625 7.859375 C 10.082031 8.863281 11.21875 9 12.15625 8.335938 C 12.542969 8.066406 13.046875 7.601562 13.273438 7.308594 C 13.503906 7.015625 14.109375 6.324219 14.621094 5.773438 C 15.449219 4.878906 15.644531 4.773438 16.449219 4.773438 C 17.25 4.773438 17.476562 4.894531 18.496094 5.878906 C 19.257812 6.613281 20.238281 7.988281 21.394531 9.941406 C 25.730469 17.265625 28.84375 22.023438 32.523438 26.953125 C 36.53125 32.324219 37.847656 33.953125 44.4375 41.65625 C 47.914062 45.714844 61.835938 60.117188 66.960938 64.949219 C 69.640625 67.476562 69.648438 67.480469 70.175781 67.136719 C 71.199219 66.464844 74.726562 64.691406 76.546875 63.933594 C 79.566406 62.679688 82.558594 61.792969 85.347656 61.320312 C 85.925781 61.222656 86.875 61.03125 87.453125 60.890625 C 89.085938 60.5 97.296875 60.5625 99.886719 60.984375 C 105.863281 61.960938 111.847656 64.253906 114.828125 66.71875 C 116.382812 68 116.90625 68.832031 116.890625 69.992188 C 116.875 70.980469 116.65625 71.410156 115.269531 73.132812 C 113.769531 74.996094 113.550781 75.488281 113.171875 77.898438 C 112.972656 79.148438 112.628906 80.402344 112.316406 81.015625 L 111.789062 82.039062 L 113.429688 83.757812 C 120.332031 90.984375 125.664062 98.429688 129.308594 105.941406 C 132.675781 112.875 134.761719 120.621094 134.761719 126.1875 L 134.761719 127.742188 L 139.875 132.125 C 142.683594 134.535156 145.03125 136.5625 145.089844 136.632812 C 145.199219 136.757812 149.214844 140.234375 150.144531 141.007812 C 150.4375 141.25 154.507812 144.777344 159.195312 148.847656 C 163.878906 152.921875 167.746094 156.21875 167.785156 156.179688 C 167.824219 156.144531 167.757812 153.9375 167.640625 151.28125 C 167.523438 148.621094 167.242188 141.132812 167.011719 134.632812 C 165.3125 86.703125 165.3125 61.765625 167.011719 51.695312 C 167.910156 46.386719 169.128906 45.085938 171.992188 46.371094 C 173.675781 47.128906 174.453125 47.382812 175.09375 47.386719 C 175.898438 47.390625 177.308594 46.976562 177.960938 46.542969 C 178.816406 45.976562 180.234375 45.492188 181.027344 45.492188 C 182.207031 45.492188 183.421875 46.859375 184.226562 49.089844 C 188.109375 59.875 190.550781 92.015625 192.976562 164.277344 L 193.03125 165.859375 L 226.851562 166.320312 C 269.152344 166.898438 297.304688 167.355469 307.664062 167.640625 C 327.078125 168.171875 337.332031 168.324219 337.480469 168.078125 C 337.5625 167.945312 337.695312 166.394531 337.773438 164.632812 C 338.546875 147.265625 341.699219 103.035156 343.597656 82.941406 C 345.003906 68.058594 346.519531 59.105469 347.714844 58.644531 C 348.234375 58.445312 348.628906 58.972656 349.058594 60.445312 C 350.878906 66.644531 352.324219 84.730469 353.382812 114.484375 C 353.917969 129.433594 354.550781 156.398438 354.550781 164.207031 C 354.550781 166.433594 354.609375 168.402344 354.679688 168.585938 C 354.789062 168.875 355.390625 168.917969 359.160156 168.925781 C 361.550781 168.929688 368.058594 169.070312 373.625 169.242188 C 379.1875 169.414062 387.4375 169.648438 391.957031 169.761719 C 396.476562 169.878906 406.054688 170.167969 413.238281 170.40625 C 438.644531 171.246094 446.976562 171.402344 446.746094 171.027344 C 446.671875 170.910156 446.027344 170.417969 445.308594 169.929688 C 444.59375 169.445312 443.910156 168.964844 443.796875 168.867188 C 443.679688 168.769531 442.675781 168.007812 441.5625 167.171875 C 438.8125 165.101562 436.019531 162.957031 435.894531 162.8125 C 435.835938 162.746094 434.367188 161.5625 432.628906 160.179688 C 430.886719 158.800781 429.3125 157.519531 429.125 157.332031 C 428.933594 157.148438 428.601562 156.851562 428.386719 156.671875 C 428.167969 156.492188 426.09375 154.699219 423.777344 152.691406 C 421.457031 150.683594 419.449219 148.996094 419.3125 148.941406 C 419.171875 148.886719 417.085938 149.949219 414.675781 151.300781 C 410.019531 153.914062 400.300781 158.792969 399.742188 158.792969 C 399.675781 158.792969 399.128906 159.023438 398.527344 159.300781 C 397.925781 159.582031 396.628906 160.113281 395.644531 160.480469 C 394.660156 160.84375 393.664062 161.226562 393.433594 161.324219 C 393.199219 161.425781 392.109375 161.789062 391.007812 162.132812 C 381.191406 165.210938 372.039062 165.480469 369.460938 162.769531 C 369.144531 162.433594 368.882812 162.027344 368.882812 161.863281 C 368.882812 161.089844 370.753906 159.613281 373.933594 157.878906 C 379.121094 155.050781 388.933594 148.328125 395.277344 143.261719 C 396.058594 142.636719 397.386719 141.578125 398.226562 140.910156 C 399.066406 140.246094 399.800781 139.644531 399.859375 139.578125 C 399.917969 139.511719 401.128906 138.527344 402.554688 137.386719 C 403.976562 136.246094 405.117188 135.242188 405.082031 135.15625 C 405.050781 135.070312 403.464844 133.347656 401.566406 131.335938 C 399.664062 129.320312 397.046875 126.4375 395.75 124.929688 C 393.035156 121.769531 387.050781 114.269531 385.253906 111.777344 C 383.699219 109.617188 378.785156 102.246094 378.621094 101.824219 C 378.550781 101.652344 378.195312 101.035156 377.832031 100.453125 C 377.464844 99.875 376.449219 98.023438 375.570312 96.339844 C 369.875 85.445312 367.667969 75.421875 370.328125 72.554688 C 371.148438 71.671875 371.847656 71.445312 374.785156 71.117188 C 376.8125 70.894531 377.820312 70.667969 379.011719 70.171875 C 384.148438 68.03125 385.484375 68.167969 388.375 71.117188 C 390.179688 72.960938 391.144531 74.410156 396.59375 83.46875 C 401.652344 91.875 405.769531 98.15625 411.195312 105.730469 C 413.109375 108.398438 414.972656 111.007812 415.34375 111.53125 C 415.890625 112.300781 421.898438 120.34375 422.085938 120.558594 C 422.140625 120.617188 427.582031 115.917969 427.992188 115.460938 C 428.105469 115.328125 428.867188 114.652344 429.675781 113.957031 C 430.488281 113.261719 431.246094 112.589844 431.363281 112.460938 C 431.480469 112.335938 433.234375 110.820312 435.261719 109.097656 C 437.289062 107.375 439.089844 105.816406 439.265625 105.636719 C 439.4375 105.453125 440.148438 104.835938 440.84375 104.257812 C 441.539062 103.679688 442.15625 103.148438 442.214844 103.082031 C 442.378906 102.886719 449.371094 97.109375 452.433594 94.636719 C 463.003906 86.109375 471.253906 80.777344 476.402344 79.152344 C 477.902344 78.675781 478.53125 78.585938 479.824219 78.652344 C 481.3125 78.726562 481.457031 78.777344 482.15625 79.476562 C 482.652344 79.972656 483.210938 80.976562 483.835938 82.492188 C 484.839844 84.921875 485.03125 85.242188 486.96875 87.6875 C 488.695312 89.871094 489.0625 90.765625 488.960938 92.542969 C 488.832031 94.839844 487.503906 96.761719 482.960938 101.222656 C 481.585938 102.570312 479.371094 104.609375 478.039062 105.75 C 476.707031 106.890625 475.566406 107.882812 475.511719 107.953125 C 475.453125 108.027344 474.171875 109.074219 472.664062 110.277344 C 471.160156 111.484375 469.734375 112.628906 469.503906 112.824219 C 468.851562 113.375 464.789062 116.597656 463.496094 117.589844 C 462.859375 118.078125 462.054688 118.730469 461.707031 119.042969 C 461.359375 119.351562 460.175781 120.277344 459.074219 121.09375 C 457.972656 121.914062 457.023438 122.644531 456.964844 122.71875 C 456.90625 122.792969 455.628906 123.769531 454.121094 124.882812 C 452.613281 126 451.285156 126.992188 451.171875 127.089844 C 450.855469 127.355469 446.609375 130.449219 444.21875 132.15625 C 443.058594 132.984375 442.007812 133.753906 441.882812 133.859375 C 441.753906 133.96875 440.378906 134.929688 438.824219 135.992188 C 437.269531 137.054688 435.96875 138.007812 435.933594 138.109375 C 435.867188 138.300781 436.28125 138.875 438.859375 142.125 C 439.730469 143.226562 441.347656 145.316406 442.449219 146.765625 C 443.550781 148.214844 445.210938 150.398438 446.140625 151.617188 C 451.253906 158.328125 456.402344 165.753906 458.59375 169.582031 L 459.605469 171.34375 L 469.613281 171.496094 C 475.117188 171.578125 482.273438 171.75 485.519531 171.875 C 491.683594 172.121094 504.1875 172.980469 506.910156 173.347656 C 507.777344 173.464844 509.484375 173.65625 510.703125 173.773438 C 514.269531 174.121094 524.011719 175.777344 527.347656 176.609375 C 529.886719 177.242188 534.832031 178.6875 535.726562 179.058594 C 535.988281 179.167969 536.414062 179.34375 536.675781 179.449219 C 539.992188 180.789062 542.3125 182.140625 542.3125 182.738281 C 542.3125 182.894531 542.015625 183.085938 541.652344 183.167969 C 540.855469 183.34375 536.3125 183.132812 531.457031 182.699219 C 529.046875 182.484375 524.085938 182.34375 516.277344 182.269531 C 502.1875 182.140625 494.890625 182.410156 471.824219 183.925781 C 463.015625 184.507812 454.335938 185.066406 452.539062 185.171875 C 450.746094 185.277344 448.042969 185.46875 446.535156 185.597656 C 439.652344 186.183594 412.660156 187.042969 370.988281 188.007812 C 362.46875 188.203125 355.375 188.402344 355.21875 188.453125 C 354.992188 188.523438 354.960938 189.421875 355.066406 193.234375 C 355.136719 195.816406 355.289062 202.675781 355.40625 208.480469 C 355.957031 236.054688 356.820312 262.863281 357.820312 283.484375 C 358.296875 293.257812 358.992188 305.714844 359.078125 305.980469 C 359.128906 306.140625 360.652344 306.257812 363.753906 306.339844 C 373.523438 306.609375 420.121094 308.328125 421.5625 308.476562 C 422.203125 308.542969 425.851562 308.6875 429.675781 308.800781 C 433.5 308.910156 438.667969 309.101562 441.160156 309.226562 C 448.304688 309.578125 464.023438 310.300781 468.765625 310.496094 C 471.144531 310.59375 474.652344 310.777344 476.5625 310.898438 C 478.476562 311.023438 481.984375 311.222656 484.359375 311.339844 C 486.738281 311.457031 489.960938 311.648438 491.527344 311.757812 C 493.089844 311.871094 496.03125 312.066406 498.058594 312.195312 C 509.492188 312.921875 515.785156 313.410156 522.503906 314.082031 C 533.28125 315.160156 538.203125 315.796875 540.308594 316.390625 C 540.65625 316.488281 541.320312 316.628906 541.785156 316.707031 C 542.246094 316.78125 543.378906 317.085938 544.300781 317.390625 C 548.214844 318.671875 548.589844 319.511719 546.632812 322.632812 C 545.152344 324.988281 545.136719 325.441406 546.421875 328.046875 C 547.527344 330.292969 547.617188 331.183594 546.835938 332.074219 C 543.71875 335.621094 522.550781 336.5625 474.773438 335.273438 C 457.191406 334.800781 443.636719 334.351562 437.367188 334.03125 C 436.152344 333.96875 432.359375 333.816406 428.9375 333.695312 C 425.519531 333.574219 421.207031 333.382812 419.351562 333.265625 C 417.496094 333.152344 413.417969 332.964844 410.289062 332.847656 C 403.191406 332.589844 387.695312 331.890625 382.789062 331.605469 C 380.761719 331.492188 376.777344 331.296875 373.9375 331.171875 C 371.101562 331.050781 367.78125 330.898438 366.5625 330.835938 L 364.351562 330.71875 L 364.878906 331.171875 C 365.167969 331.417969 365.878906 332.070312 366.457031 332.621094 C 367.039062 333.171875 373.097656 338.648438 379.921875 344.792969 C 386.746094 350.933594 392.539062 356.148438 392.796875 356.382812 C 395.199219 358.546875 399.210938 362.171875 400.660156 363.488281 L 402.445312 365.113281 L 403.757812 364 C 407.304688 360.988281 412.472656 357.9375 416.824219 356.285156 C 417.519531 356.019531 418.25 355.722656 418.449219 355.621094 C 418.648438 355.519531 419.167969 355.347656 419.609375 355.238281 C 420.046875 355.125 421.257812 354.804688 422.300781 354.515625 C 423.34375 354.230469 425.527344 353.789062 427.148438 353.53125 C 429.757812 353.117188 430.65625 353.078125 434.945312 353.167969 C 439.226562 353.257812 440.183594 353.347656 443.164062 353.921875 C 446.789062 354.621094 447.425781 354.777344 449.695312 355.542969 C 453.238281 356.734375 456.871094 358.46875 458.632812 359.804688 C 460.707031 361.375 461.390625 362.285156 461.390625 363.453125 C 461.390625 364.332031 461.132812 364.78125 459.710938 366.402344 C 459.046875 367.15625 458.347656 368.078125 458.15625 368.453125 C 457.679688 369.371094 457.257812 373.429688 457.625 373.550781 C 457.769531 373.597656 459.507812 374.464844 461.484375 375.472656 C 464.511719 377.019531 466.394531 378.078125 469.082031 379.75 C 471.078125 380.992188 477.171875 385.828125 479.257812 387.824219 C 483.1875 391.582031 485.414062 394.511719 487.738281 398.984375 C 494.367188 411.714844 492.996094 425.457031 483.894531 437.546875 C 483.222656 438.4375 482.675781 439.25 482.675781 439.351562 C 482.675781 439.449219 484.355469 441.140625 486.410156 443.109375 C 494.117188 450.488281 504.871094 461.472656 507.75 464.910156 C 509.878906 467.445312 510.363281 468.699219 509.078125 468.328125 C 507.847656 467.96875 501.625 464.101562 499.636719 462.460938 C 499.523438 462.363281 499.097656 462.058594 498.691406 461.78125 C 498.285156 461.503906 497.289062 460.785156 496.476562 460.183594 C 495.667969 459.582031 494.054688 458.390625 492.894531 457.535156 C 491.734375 456.675781 487.722656 453.617188 483.980469 450.738281 C 480.234375 447.855469 477.054688 445.457031 476.917969 445.40625 C 476.78125 445.351562 476.335938 445.601562 475.933594 445.957031 C 474.992188 446.777344 471.8125 449.175781 470.03125 450.40625 C 464.179688 454.441406 454.960938 458.558594 445.375 461.417969 C 435.824219 464.269531 422.636719 466.191406 412.292969 466.25 C 408.527344 466.269531 407.230469 466.199219 406 465.917969 C 399.089844 464.332031 393.902344 460.886719 389.429688 454.910156 C 384.902344 448.859375 382.425781 442.46875 380.921875 432.96875 C 380.179688 428.285156 379.988281 424.957031 380.113281 418.949219 C 380.269531 411.417969 380.925781 406.574219 382.800781 399.078125 C 384.53125 392.15625 388.152344 383.472656 391.457031 378.324219 L 392.269531 377.058594 L 391.375 376.230469 C 390.882812 375.777344 389.582031 374.6875 388.480469 373.8125 C 387.378906 372.933594 386.144531 371.917969 385.738281 371.546875 C 385.335938 371.179688 384.480469 370.46875 383.84375 369.96875 C 383.207031 369.46875 382.578125 368.960938 382.449219 368.839844 C 381.707031 368.136719 362.683594 352.492188 362.632812 352.546875 C 362.585938 352.59375 363.042969 357.207031 363.933594 365.769531 C 365.882812 384.429688 368.0625 400.398438 372.589844 429.171875 C 376.378906 453.242188 376.53125 454.4375 376.554688 459.976562 C 376.574219 463.96875 376.546875 464.242188 376.097656 465.085938 C 375.535156 466.144531 374.816406 466.410156 373.214844 466.15625 C 370.398438 465.710938 369.417969 465.710938 368.554688 466.15625 C 368.097656 466.390625 367.53125 466.761719 367.300781 466.976562 C 366.441406 467.78125 364.964844 468.699219 364.320312 468.832031 C 363.488281 469 362.261719 468.507812 361.5625 467.726562 C 356.71875 462.308594 350.441406 441.097656 345.402344 413.136719 C 341.394531 390.90625 338.164062 363.046875 336.515625 336.441406 L 336.15625 330.640625 L 335.539062 329.980469 C 335.078125 329.488281 334.667969 329.285156 333.9375 329.1875 C 332.820312 329.042969 317.578125 328.125 310.722656 327.792969 C 305.335938 327.53125 293.265625 326.84375 288.382812 326.519531 C 286.472656 326.394531 274.050781 325.617188 260.777344 324.796875 C 232.558594 323.050781 231.492188 322.984375 208.945312 321.480469 C 201.820312 321.007812 195.972656 320.617188 195.953125 320.617188 C 195.917969 320.617188 195.871094 321.710938 195.339844 334.753906 C 194.949219 344.351562 194.242188 357.796875 193.03125 378.640625 C 190.816406 416.765625 190.40625 426.53125 189.863281 453.539062 C 189.691406 462.183594 189.453125 470.445312 189.335938 471.894531 C 188.929688 476.832031 188.246094 477.90625 187.039062 475.511719 Z M 428.832031 442.894531 C 433.519531 442.390625 434.625 442.222656 439.160156 441.324219 C 441.523438 440.851562 444.578125 440.125 445.375 439.84375 C 445.664062 439.738281 446.757812 439.402344 447.800781 439.089844 C 448.84375 438.78125 449.886719 438.441406 450.117188 438.339844 C 450.347656 438.234375 451.011719 437.992188 451.59375 437.804688 C 454.3125 436.921875 461.285156 433.546875 461.285156 433.113281 C 461.285156 433 458.726562 430.882812 455.597656 428.414062 C 450.757812 424.589844 449.042969 423.214844 445.691406 420.453125 C 445.089844 419.960938 439.929688 415.839844 439.074219 415.171875 C 438.679688 414.863281 438.207031 414.464844 438.023438 414.28125 C 437.835938 414.097656 436.261719 412.820312 434.523438 411.441406 C 432.785156 410.058594 431.316406 408.875 431.257812 408.808594 C 431.199219 408.738281 430.203125 407.933594 429.042969 407.015625 C 427.886719 406.097656 426.699219 405.125 426.410156 404.855469 C 426.121094 404.585938 425.363281 403.964844 424.726562 403.484375 C 424.085938 403 422.996094 402.121094 422.300781 401.535156 C 421.605469 400.949219 420.5625 400.09375 419.984375 399.628906 C 419.402344 399.167969 418.738281 398.628906 418.507812 398.433594 C 417.113281 397.253906 411.816406 392.988281 411.746094 392.988281 C 411.699219 392.988281 411.234375 393.839844 410.714844 394.882812 C 407.667969 400.957031 405.671875 407.976562 404.660156 416.195312 C 404.269531 419.378906 404.335938 426.875 404.78125 430.015625 C 405.449219 434.734375 406.414062 437.910156 408.011719 440.671875 C 408.75 441.945312 410.054688 443.308594 410.710938 443.492188 C 410.941406 443.554688 414.023438 443.566406 417.558594 443.511719 C 422.40625 443.441406 425.179688 443.289062 428.832031 442.894531 Z M 470.460938 425.742188 C 473.550781 422.25 475.390625 418.132812 475.820312 413.765625 C 476.089844 411.015625 475.28125 407.015625 473.785156 403.679688 C 472.917969 401.753906 471.109375 398.753906 470.058594 397.496094 C 469.753906 397.136719 469.125 396.375 468.664062 395.808594 C 466.578125 393.257812 462.179688 389.015625 458.675781 386.175781 C 456.988281 384.808594 449.847656 379.871094 447.484375 378.433594 C 445.917969 377.484375 444.382812 376.523438 444.066406 376.300781 C 443.566406 375.945312 443.113281 375.898438 440.371094 375.898438 C 433.792969 375.898438 428.628906 377.109375 423.964844 379.753906 C 422.339844 380.675781 420.800781 381.800781 420.933594 381.96875 C 420.988281 382.042969 425.066406 385.808594 429.992188 390.335938 C 434.917969 394.863281 442.589844 401.941406 447.039062 406.0625 C 451.492188 410.183594 455.757812 414.125 456.523438 414.820312 C 457.289062 415.515625 458.957031 417.082031 460.234375 418.304688 C 464.832031 422.714844 469.210938 426.730469 469.433594 426.738281 C 469.511719 426.742188 469.972656 426.292969 470.460938 425.742188 Z M 304.703125 304.203125 C 304.59375 304.109375 303.839844 303.464844 303.03125 302.769531 C 302.21875 302.074219 300.75 300.851562 299.761719 300.050781 C 298.777344 299.25 297.925781 298.535156 297.867188 298.464844 C 297.742188 298.308594 294.425781 295.519531 291.125 292.792969 C 289.128906 291.144531 287.714844 289.953125 287.453125 289.699219 C 287.328125 289.574219 284.664062 287.355469 281.535156 284.765625 C 278.40625 282.175781 275.242188 279.519531 274.503906 278.867188 C 273.765625 278.214844 272.839844 277.453125 272.449219 277.175781 L 271.738281 276.667969 L 270.113281 277.660156 C 268.238281 278.808594 263.480469 281.230469 261.9375 281.824219 C 261.359375 282.046875 260.648438 282.335938 260.355469 282.464844 C 259.214844 282.96875 258.910156 283.082031 256.773438 283.773438 C 251.578125 285.460938 246.84375 286.226562 241.652344 286.226562 C 237.125 286.226562 233.945312 285.726562 230.011719 284.386719 C 218.484375 280.46875 210.535156 270.730469 208.613281 258.167969 C 207.921875 253.671875 208.253906 246.800781 209.371094 242.421875 C 210.128906 239.4375 211.679688 235.335938 213.273438 232.074219 C 214.136719 230.316406 214.839844 228.785156 214.839844 228.671875 C 214.839844 228.558594 214.625 228.324219 214.367188 228.152344 C 214.105469 227.980469 213.65625 227.609375 213.363281 227.324219 C 213.074219 227.042969 211.652344 225.824219 210.203125 224.617188 C 207.113281 222.046875 202.136719 217.824219 201.984375 217.648438 C 201.925781 217.578125 200.71875 216.558594 199.300781 215.382812 C 197.882812 214.203125 196.378906 212.929688 195.960938 212.546875 C 195.546875 212.167969 195.054688 211.769531 194.875 211.667969 C 194.511719 211.460938 194.5 209.976562 195.035156 231.582031 C 195.496094 250.101562 195.679688 261.96875 195.808594 281.429688 L 195.941406 301.839844 L 200.386719 301.84375 C 202.832031 301.847656 212.511719 302.039062 221.898438 302.273438 C 231.285156 302.503906 243.28125 302.78125 248.554688 302.886719 C 253.828125 302.996094 261.558594 303.1875 265.730469 303.3125 C 296.328125 304.246094 304.988281 304.441406 304.703125 304.203125 Z M 334.804688 297.570312 C 334.546875 287.371094 334.625 244.03125 334.917969 233.691406 C 335.335938 218.859375 335.945312 201.941406 336.40625 192.339844 C 336.492188 190.539062 336.503906 188.996094 336.433594 188.910156 C 336.308594 188.761719 298.914062 189.320312 298.757812 189.476562 C 298.71875 189.515625 299.472656 190.4375 300.4375 191.523438 C 305.746094 197.507812 311.460938 205.660156 314.273438 211.261719 C 318.359375 219.402344 319.375 227.847656 317.125 234.996094 C 315.300781 240.785156 311.117188 246.886719 305.136719 252.46875 C 304.210938 253.332031 303.402344 254.089844 303.34375 254.152344 C 303.289062 254.214844 302.8125 254.609375 302.292969 255.03125 C 301.769531 255.453125 301.105469 256.003906 300.816406 256.257812 C 300.527344 256.507812 300.070312 256.902344 299.804688 257.132812 C 299.207031 257.644531 291.394531 263.632812 290.746094 264.074219 C 290.292969 264.382812 290.363281 264.460938 293.8125 267.488281 C 295.75 269.195312 297.671875 270.890625 298.078125 271.261719 C 299.441406 272.507812 302.390625 275.148438 303.34375 275.980469 C 304.230469 276.746094 306.636719 278.914062 309.128906 281.183594 C 309.714844 281.714844 310.515625 282.425781 310.914062 282.765625 C 311.308594 283.101562 311.878906 283.617188 312.183594 283.90625 C 312.488281 284.195312 313.539062 285.136719 314.519531 285.996094 C 315.5 286.851562 316.828125 288.039062 317.464844 288.632812 C 318.101562 289.226562 319.003906 290.03125 319.464844 290.421875 C 319.929688 290.808594 320.832031 291.621094 321.46875 292.222656 C 322.105469 292.820312 323.8125 294.347656 325.261719 295.613281 C 326.710938 296.878906 328.046875 298.0625 328.234375 298.242188 C 328.84375 298.832031 330.394531 300.234375 332.105469 301.734375 C 333.03125 302.546875 333.964844 303.425781 334.175781 303.6875 C 334.390625 303.949219 334.65625 304.160156 334.765625 304.160156 C 334.894531 304.160156 334.90625 301.746094 334.804688 297.570312 Z M 246.660156 263.644531 C 249.078125 263.390625 254.035156 262.113281 254.035156 261.746094 C 254.035156 261.609375 253.730469 261.335938 251.925781 259.855469 C 251.289062 259.335938 250.722656 258.859375 250.664062 258.792969 C 250.605469 258.726562 249.703125 257.972656 248.660156 257.113281 C 247.617188 256.25 246.71875 255.492188 246.660156 255.421875 C 246.082031 254.726562 234.335938 245.105469 234.21875 245.234375 C 233.871094 245.605469 232.9375 248.605469 232.644531 250.300781 C 231.839844 254.910156 232.773438 258.878906 235.175781 261.097656 C 236.253906 262.09375 238.90625 263.433594 239.851562 263.457031 C 240.175781 263.464844 240.632812 263.550781 240.863281 263.652344 C 241.445312 263.902344 244.253906 263.898438 246.660156 263.644531 Z M 278.949219 249.082031 C 282.652344 246.980469 284.484375 245.839844 289.339844 242.621094 C 297.234375 237.382812 301.804688 232.871094 303.292969 228.839844 C 303.910156 227.167969 304.257812 224.5625 304.09375 222.828125 C 303.511719 216.699219 301.496094 211.390625 293.632812 195.316406 L 290.808594 189.535156 L 280.691406 189.679688 C 261.867188 189.953125 232.703125 190.21875 221.476562 190.226562 C 209.527344 190.230469 206.542969 190.339844 207.101562 190.746094 C 207.28125 190.878906 207.941406 191.457031 208.574219 192.03125 C 209.941406 193.285156 210.683594 193.9375 212.625 195.609375 C 213.433594 196.304688 214.238281 197.027344 214.414062 197.21875 C 214.589844 197.40625 218.171875 200.570312 222.378906 204.253906 C 230.359375 211.25 230.113281 211.074219 230.855469 210.261719 C 231.003906 210.097656 235.507812 206.832031 235.933594 206.582031 C 236.128906 206.464844 237.839844 205.390625 239.738281 204.191406 C 244.804688 200.988281 250.308594 198.425781 255.40625 196.898438 C 256.449219 196.585938 257.585938 196.242188 257.933594 196.140625 C 258.714844 195.90625 261.75 195.300781 263.308594 195.070312 C 263.945312 194.976562 265.035156 194.792969 265.730469 194.667969 C 266.425781 194.542969 269.367188 194.347656 272.261719 194.234375 C 283.601562 193.796875 292.574219 195.292969 293.992188 197.855469 C 294.417969 198.621094 294.332031 200.085938 293.753906 201.894531 C 293.097656 203.957031 293.097656 204.5625 293.78125 207.066406 C 294.175781 208.523438 294.304688 209.410156 294.234375 210.25 C 294.144531 211.308594 294.050781 211.488281 293.191406 212.269531 C 291.632812 213.679688 288.9375 214.574219 283.222656 215.578125 C 281.832031 215.824219 280.265625 216.097656 279.742188 216.1875 C 279.222656 216.28125 277.515625 216.554688 275.949219 216.800781 C 274.386719 217.042969 272.820312 217.328125 272.472656 217.433594 C 272.125 217.539062 271.414062 217.691406 270.894531 217.765625 C 269.046875 218.035156 265.277344 219.113281 262.054688 220.292969 C 259.257812 221.316406 252.625 225.070312 249.691406 227.289062 L 249.089844 227.746094 L 249.613281 228.246094 C 249.902344 228.519531 250.847656 229.359375 251.71875 230.109375 C 252.585938 230.863281 253.34375 231.523438 253.402344 231.582031 C 253.460938 231.644531 254.265625 232.351562 255.195312 233.160156 C 256.121094 233.96875 257.40625 235.105469 258.046875 235.691406 C 259.921875 237.398438 260.992188 238.351562 262.675781 239.808594 C 263.542969 240.566406 264.304688 241.230469 264.359375 241.289062 C 264.472656 241.402344 265.609375 242.421875 268.238281 244.769531 C 273.28125 249.273438 275.230469 250.964844 275.394531 250.976562 C 275.492188 250.984375 277.09375 250.132812 278.949219 249.082031 Z M 95.273438 138.957031 C 98.917969 138.675781 102.773438 138.097656 104.417969 137.589844 C 104.941406 137.425781 105.792969 137.183594 106.3125 137.050781 L 107.261719 136.804688 L 106.417969 136.074219 C 105.957031 135.675781 104.769531 134.667969 103.785156 133.835938 C 102.800781 133.003906 101.617188 131.976562 101.152344 131.550781 C 100.355469 130.820312 99.328125 129.96875 95.882812 127.195312 C 95.074219 126.539062 94.359375 125.953125 94.304688 125.890625 C 94.246094 125.824219 93.34375 125.066406 92.300781 124.203125 C 91.257812 123.339844 86.0625 118.308594 80.757812 113.023438 C 73.132812 105.425781 71.070312 103.472656 70.914062 103.722656 C 70.453125 104.460938 68.78125 109.949219 68.246094 112.480469 C 67.710938 115.011719 67.664062 115.597656 67.660156 120.074219 C 67.652344 125.335938 67.863281 126.765625 69.140625 130.140625 C 70.078125 132.609375 72.144531 135.386719 73.96875 136.617188 C 75.519531 137.664062 78.410156 138.699219 80.394531 138.917969 C 82.875 139.1875 91.984375 139.214844 95.273438 138.957031 Z M 115.476562 109.433594 C 113.382812 103.414062 109.597656 95.945312 103.964844 86.714844 L 101.890625 83.3125 L 99.992188 83.390625 C 95.113281 83.59375 94.28125 83.671875 92.40625 84.09375 C 91.304688 84.339844 90.238281 84.636719 90.039062 84.746094 C 89.835938 84.855469 89.582031 84.945312 89.472656 84.945312 C 89.363281 84.945312 89.011719 85.046875 88.691406 85.167969 C 88.113281 85.386719 88.179688 85.460938 96.316406 93.625 C 100.832031 98.15625 105.242188 102.496094 106.125 103.269531 C 108.515625 105.371094 110.011719 106.640625 111.363281 107.714844 C 113.996094 109.808594 115.695312 111.222656 115.761719 111.371094 C 115.800781 111.460938 115.917969 111.53125 116.019531 111.53125 C 116.121094 111.53125 115.875 110.585938 115.476562 109.433594 Z M 226.746094 456.804688 C 225.703125 456.65625 224.234375 456.386719 223.480469 456.203125 C 221.78125 455.796875 218.183594 454.457031 217.050781 453.8125 C 216.589844 453.550781 215.972656 453.21875 215.683594 453.078125 C 214.308594 452.40625 210.878906 449.582031 208.308594 447 C 199.796875 438.457031 195.449219 428.191406 195.453125 416.660156 C 195.460938 405.128906 199.554688 394.023438 207.757812 383.28125 C 209.476562 381.035156 210.359375 380.03125 213.574219 376.667969 C 221.765625 368.113281 234.351562 360.683594 245.605469 357.761719 C 246.011719 357.65625 246.863281 357.429688 247.503906 357.253906 C 248.140625 357.082031 249.136719 356.878906 249.714844 356.804688 C 250.292969 356.734375 251.054688 356.585938 251.402344 356.476562 C 252.410156 356.164062 258.765625 355.644531 261.410156 355.65625 C 262.742188 355.664062 264.984375 355.785156 266.390625 355.929688 L 268.945312 356.1875 L 267.90625 354.527344 C 266.21875 351.832031 266.09375 350.996094 267.378906 351.007812 C 268.558594 351.015625 271.988281 352.742188 274.160156 354.421875 C 275.53125 355.484375 278.320312 357.867188 278.890625 358.464844 C 279.289062 358.886719 279.714844 359.230469 279.839844 359.234375 C 280.164062 359.238281 282.78125 360.472656 284.484375 361.425781 C 286.863281 362.75 289.230469 364.558594 290.917969 366.332031 C 293.566406 369.113281 293.816406 370.402344 292.050781 372.171875 L 291.089844 373.128906 L 291.648438 374.039062 C 291.953125 374.539062 292.496094 375.421875 292.851562 376.003906 C 294.105469 378.046875 296.558594 382.996094 297.605469 385.601562 C 300.460938 392.707031 301.535156 398.03125 301.539062 405.117188 C 301.542969 409.433594 301.300781 411.3125 300.285156 414.824219 C 298.230469 421.945312 294.320312 427.605469 287.75 432.960938 C 286.765625 433.765625 285.535156 434.773438 285.011719 435.199219 C 282.40625 437.335938 275.375 441.972656 270.789062 444.585938 C 267.214844 446.617188 259.664062 450.238281 255.617188 451.859375 C 253.039062 452.886719 248.015625 454.578125 246.132812 455.046875 C 242.625 455.921875 241.820312 456.078125 238.15625 456.59375 C 233.9375 457.191406 229.964844 457.265625 226.746094 456.804688 Z M 239.285156 434.679688 C 243.050781 434.109375 250.585938 431.960938 254.140625 430.449219 C 254.605469 430.25 255.410156 429.941406 255.929688 429.765625 C 256.453125 429.585938 257.257812 429.273438 257.722656 429.066406 C 258.1875 428.855469 259.183594 428.429688 259.933594 428.117188 C 261.390625 427.515625 267.476562 424.535156 268.890625 423.734375 C 271.640625 422.179688 272.476562 421.6875 274.476562 420.441406 C 275.691406 419.683594 276.78125 418.984375 276.898438 418.890625 C 277.015625 418.796875 277.914062 418.113281 278.902344 417.375 C 281.769531 415.222656 283.464844 413.164062 284.800781 410.214844 C 287.652344 403.921875 287.210938 394.34375 283.597656 384.027344 C 282.667969 381.375 283.160156 381.703125 279.007812 380.960938 C 277.617188 380.714844 275.625 380.335938 274.582031 380.121094 C 271.117188 379.410156 268.402344 379.207031 264.109375 379.335938 C 261.558594 379.414062 259.492188 379.582031 258.566406 379.796875 C 257.753906 379.980469 256.570312 380.230469 255.929688 380.351562 C 254.644531 380.589844 254.464844 380.640625 251.25 381.691406 C 248.152344 382.703125 245.527344 383.871094 242.761719 385.460938 C 241.074219 386.429688 236.6875 389.289062 236.285156 389.679688 C 236.140625 389.824219 235.449219 390.382812 234.753906 390.925781 C 233.226562 392.113281 230.765625 394.46875 228.988281 396.445312 C 224.242188 401.714844 220.84375 408.125 219.773438 413.824219 C 219.304688 416.3125 219.457031 420.734375 220.082031 422.839844 C 221.046875 426.085938 223.023438 429.253906 225.980469 432.300781 C 227.832031 434.207031 228.738281 434.636719 231.804688 435.0625 C 232.898438 435.214844 237.199219 434.992188 239.285156 434.679688 Z M 37.414062 420.640625 C 37.097656 420.046875 37.148438 418.453125 37.527344 416.964844 C 38.222656 414.246094 40.585938 410.109375 43.867188 405.867188 C 45.597656 403.628906 49.800781 399.148438 52.484375 396.679688 C 53.746094 395.519531 54.96875 394.375 55.207031 394.136719 C 55.441406 393.898438 56.726562 392.800781 58.058594 391.695312 C 59.390625 390.589844 60.625 389.546875 60.796875 389.375 C 61.585938 388.601562 73.257812 379.734375 74.214844 379.1875 C 74.234375 379.175781 73.6875 378.550781 72.996094 377.796875 C 69.105469 373.550781 65.355469 368.210938 63.121094 363.726562 C 61.351562 360.183594 60.324219 357.261719 59.613281 353.753906 C 59.148438 351.488281 59.085938 350.726562 59.171875 348.46875 C 59.296875 345.152344 59.65625 343.933594 60.90625 342.628906 L 61.835938 341.65625 L 65.058594 341.824219 C 68.945312 342.027344 68.210938 342.023438 72.28125 341.832031 C 75.449219 341.683594 75.726562 341.699219 76.867188 342.132812 C 78.5625 342.777344 79.941406 344.246094 81.976562 347.589844 C 84.261719 351.347656 87.347656 356.042969 88.792969 357.964844 C 90.730469 360.542969 95.191406 365.769531 95.453125 365.769531 C 95.5 365.769531 96.371094 365.285156 97.394531 364.691406 C 98.417969 364.101562 100.347656 363.035156 101.679688 362.328125 C 103.011719 361.621094 104.480469 360.828125 104.945312 360.566406 C 106.203125 359.863281 116.746094 354.585938 116.902344 354.585938 C 117.023438 354.585938 118.753906 353.804688 121.804688 352.371094 C 124.304688 351.195312 135.976562 346.59375 137.609375 346.140625 C 137.957031 346.042969 139.585938 345.539062 141.226562 345.023438 C 142.871094 344.503906 144.625 344.011719 145.128906 343.929688 C 145.628906 343.847656 146.1875 343.699219 146.375 343.601562 C 146.75 343.40625 151.316406 342.554688 154.886719 342.019531 C 158.714844 341.445312 163.332031 341.890625 165.355469 343.027344 C 166.949219 343.925781 167.324219 345.058594 166.875 347.59375 C 166.46875 349.878906 166.46875 351.796875 166.875 354.425781 C 167.46875 358.261719 166.789062 360.054688 164.058594 361.84375 C 162.101562 363.121094 160.726562 363.75 154.777344 366.078125 C 152.519531 366.960938 150.386719 367.8125 150.039062 367.96875 C 149.691406 368.128906 147.9375 368.789062 146.140625 369.445312 C 144.347656 370.097656 142.6875 370.714844 142.453125 370.8125 C 142.222656 370.914062 141.417969 371.234375 140.664062 371.523438 C 139.910156 371.816406 136.734375 373.070312 133.605469 374.316406 C 128.402344 376.382812 126.777344 377.046875 125.597656 377.589844 C 125.363281 377.695312 124.652344 377.984375 124.015625 378.226562 C 121.367188 379.230469 112.839844 382.9375 112.894531 383.058594 C 112.925781 383.132812 114.945312 385.03125 117.378906 387.285156 C 119.8125 389.535156 124.320312 393.898438 127.394531 396.980469 C 133.976562 403.582031 135.386719 405.105469 138.046875 408.496094 C 142.617188 414.3125 144.671875 418.898438 143.476562 420.609375 C 143.144531 421.082031 143.046875 421.101562 141.421875 420.980469 C 139.609375 420.84375 138.820312 420.589844 134.972656 418.890625 C 132.574219 417.832031 120.773438 411.902344 120.285156 411.511719 C 120.144531 411.398438 119.71875 411.140625 119.335938 410.941406 C 117.519531 409.980469 109.554688 405.539062 109.371094 405.382812 C 109.253906 405.285156 107.617188 404.28125 105.730469 403.15625 C 102.644531 401.3125 95.621094 396.859375 95.355469 396.582031 C 95.234375 396.449219 94.371094 395.835938 92.164062 394.3125 C 91.277344 393.699219 90.410156 393.199219 90.238281 393.199219 C 90.066406 393.199219 84.960938 395.664062 78.890625 398.679688 C 69.515625 403.335938 66.476562 404.902344 60.417969 408.1875 C 60.039062 408.394531 59.609375 408.652344 59.472656 408.761719 C 59.332031 408.871094 58.695312 409.230469 58.058594 409.558594 C 55.46875 410.902344 43.078125 418.453125 42.675781 418.9375 C 42.507812 419.136719 40.546875 420.265625 39.648438 420.675781 C 38.566406 421.171875 37.691406 421.15625 37.414062 420.640625 Z M 116.035156 294.015625 C 115.566406 293.828125 113.945312 292.570312 112.929688 291.609375 C 110.308594 289.113281 107.792969 286.917969 105.789062 285.371094 C 104.976562 284.746094 104.265625 284.179688 104.207031 284.117188 C 103.984375 283.875 102.253906 282.566406 100.578125 281.378906 C 99.621094 280.695312 98.710938 280.03125 98.5625 279.894531 C 98.234375 279.605469 81.6875 268.714844 81.570312 268.714844 C 81.527344 268.714844 79.988281 267.703125 78.152344 266.464844 C 76.3125 265.226562 74.242188 263.832031 73.546875 263.367188 C 72.851562 262.898438 71.410156 261.871094 70.347656 261.078125 C 69.28125 260.289062 68.351562 259.644531 68.277344 259.644531 C 68.074219 259.644531 54.566406 265.628906 51.628906 267.019531 C 50.238281 267.679688 48.769531 268.351562 48.363281 268.519531 C 47.957031 268.6875 44.261719 270.496094 40.144531 272.546875 C 33.886719 275.660156 30.457031 277.523438 22.707031 282.027344 C 22.328125 282.246094 20.765625 283.265625 19.230469 284.292969 C 15.992188 286.460938 14.519531 287.28125 13.871094 287.28125 C 12.824219 287.28125 12.457031 285.558594 13.039062 283.367188 C 13.875 280.230469 16.125 276.480469 20.117188 271.5625 C 20.402344 271.214844 22.25 269.316406 24.226562 267.339844 C 28.070312 263.5 31.671875 260.394531 37.3125 256.058594 C 39.355469 254.488281 46.703125 249.320312 49.617188 247.410156 L 52.34375 245.621094 L 51.132812 244.351562 C 47.253906 240.273438 42.453125 232.878906 40.441406 227.890625 C 38.535156 223.152344 37.742188 219.398438 37.859375 215.613281 C 37.925781 213.34375 37.988281 213.007812 38.566406 211.863281 C 39.585938 209.832031 39.746094 209.769531 44.21875 209.597656 C 46.535156 209.511719 48.589844 209.320312 49.417969 209.113281 C 50.171875 208.929688 51.613281 208.722656 52.617188 208.65625 C 54.753906 208.515625 55.628906 208.824219 57.335938 210.328125 C 58.152344 211.050781 61.429688 215.65625 61.429688 216.082031 C 61.429688 216.3125 66.214844 223.488281 67.34375 224.941406 C 68.945312 227.011719 72.632812 231.355469 73.402344 232.085938 L 74.046875 232.691406 L 75.273438 231.992188 C 75.945312 231.609375 76.875 231.085938 77.339844 230.832031 C 77.804688 230.578125 79.792969 229.488281 81.765625 228.410156 C 83.734375 227.332031 86.863281 225.65625 88.71875 224.6875 C 92.492188 222.714844 113.75 212.078125 116.339844 210.863281 C 117.257812 210.433594 119.003906 209.613281 120.222656 209.042969 C 121.441406 208.472656 123.195312 207.648438 124.121094 207.214844 C 128.507812 205.160156 135.46875 202.347656 137.820312 201.683594 C 143.742188 200.007812 145.34375 200.550781 146.953125 204.769531 C 147.710938 206.757812 148.589844 208.171875 150.210938 210.03125 C 151.746094 211.785156 152.148438 212.628906 152.140625 214.070312 C 152.121094 216.835938 149.253906 219.964844 142.402344 224.6875 C 141.449219 225.347656 140.621094 225.886719 140.566406 225.886719 C 140.511719 225.886719 139.730469 226.347656 138.828125 226.910156 C 134.785156 229.433594 131.617188 231.078125 119.027344 237.195312 C 114.558594 239.363281 92.894531 249.011719 91.613281 249.402344 C 91.183594 249.53125 91.820312 250.234375 97.644531 256.019531 C 104.382812 262.71875 106.808594 265.410156 110.3125 270.085938 C 114.386719 275.519531 116.785156 280.003906 118.222656 284.855469 C 118.902344 287.152344 119.175781 291.136719 118.75 292.472656 C 118.246094 294.042969 117.359375 294.550781 116.035156 294.015625 Z M 399.121094 285.722656 C 393.738281 284.863281 389.652344 282.828125 386.160156 279.273438 C 383.507812 276.570312 381.601562 272.925781 380.75 268.925781 C 380.164062 266.191406 380.234375 260.84375 380.882812 258.167969 C 382.652344 250.898438 386.4375 243.289062 391.554688 236.730469 C 393.660156 234.035156 393.875 233.792969 397.75 229.894531 C 401.734375 225.886719 402.054688 225.601562 405.972656 222.589844 C 407.96875 221.054688 412.949219 217.65625 413.199219 217.65625 C 413.257812 217.65625 413.929688 217.277344 414.695312 216.808594 C 416.445312 215.746094 421.613281 213.230469 423.566406 212.488281 C 426.699219 211.300781 428.566406 210.730469 432.96875 209.621094 C 435.003906 209.105469 439.5 208.554688 442.53125 208.445312 C 448.015625 208.246094 452.484375 208.796875 457.972656 210.34375 C 461.941406 211.464844 466.648438 214.160156 468.667969 216.460938 C 470.574219 218.640625 470.441406 219.863281 467.992188 222.523438 C 467.144531 223.445312 466.449219 224.320312 466.449219 224.464844 C 466.449219 224.609375 466.734375 224.855469 467.085938 225.011719 C 467.996094 225.414062 469.957031 227.269531 470.558594 228.292969 C 472.265625 231.210938 472.488281 235.195312 471.167969 239.179688 C 469.699219 243.597656 466.199219 249.394531 462.257812 253.9375 C 459.570312 257.03125 455.472656 261.050781 452.035156 263.96875 C 451.351562 264.550781 450.6875 265.121094 450.558594 265.242188 C 450.433594 265.359375 449.710938 265.929688 448.957031 266.5 C 447.378906 267.703125 447.375 267.707031 446.535156 268.40625 C 445.441406 269.3125 438.621094 273.855469 436.421875 275.140625 C 435.261719 275.816406 433.980469 276.578125 433.574219 276.835938 C 432.902344 277.257812 426.640625 280.363281 424.621094 281.277344 C 423.3125 281.867188 418.882812 283.464844 417.242188 283.9375 C 415.628906 284.398438 415.074219 284.535156 412.714844 285.050781 C 411.84375 285.238281 410.660156 285.5 410.078125 285.625 C 408.476562 285.976562 401.113281 286.042969 399.121094 285.722656 Z M 410.371094 264.683594 C 413.121094 264.222656 415.800781 263.632812 417.558594 263.101562 C 419.71875 262.449219 424.746094 260.707031 425.039062 260.507812 C 425.15625 260.429688 425.632812 260.238281 426.09375 260.082031 C 426.558594 259.929688 427.457031 259.566406 428.097656 259.273438 C 428.734375 258.984375 429.964844 258.441406 430.835938 258.066406 C 433.386719 256.960938 440.496094 253.164062 444.007812 251.027344 C 445.980469 249.824219 451.117188 246.441406 451.796875 245.894531 C 452.699219 245.171875 453.851562 244.277344 454.339844 243.925781 C 456.082031 242.664062 459.25 239.65625 461.339844 237.28125 C 463.59375 234.714844 464.714844 232.335938 464.441406 230.710938 L 464.296875 229.851562 L 463.667969 230.617188 C 462.4375 232.109375 462.378906 232.117188 454.226562 232.039062 L 446.953125 231.972656 L 443.214844 232.628906 C 439.082031 233.355469 437.785156 233.703125 434.101562 235.058594 C 431.890625 235.875 427 238.332031 424.621094 239.828125 C 415.019531 245.851562 406.746094 254.691406 403.902344 261.964844 C 402.933594 264.4375 402.910156 264.664062 403.597656 264.765625 C 404.851562 264.957031 409.050781 264.90625 410.371094 264.683594 Z M 281.292969 156.230469 C 276.105469 155.496094 264.410156 149.886719 254.5625 143.410156 C 248.585938 139.476562 241.460938 134.375 238.691406 132.042969 L 237.574219 131.097656 L 236.164062 131.683594 C 233.394531 132.835938 221.632812 138.527344 218.738281 140.113281 C 211.921875 143.855469 210.644531 143.996094 210.457031 141.03125 C 210.167969 136.511719 214.164062 129.871094 221.601562 122.503906 L 224.476562 119.652344 L 220.582031 115.644531 C 216.671875 111.621094 211.914062 106.113281 208.878906 102.097656 C 203.882812 95.484375 199.988281 87.929688 199.554688 83.996094 C 199.226562 81.054688 200.148438 79.890625 204.023438 78.332031 C 205.863281 77.59375 207.191406 76.871094 208.824219 75.734375 C 211.398438 73.929688 212.296875 73.554688 213.988281 73.554688 C 216.289062 73.554688 218.785156 75.289062 222.328125 79.355469 C 223.839844 81.085938 233.046875 92.46875 234.550781 94.464844 C 234.777344 94.765625 235.710938 95.90625 236.628906 96.996094 C 237.542969 98.085938 238.632812 99.398438 239.050781 99.914062 C 240.425781 101.613281 243.507812 105.203125 243.589844 105.203125 C 243.632812 105.203125 244.839844 104.445312 246.269531 103.523438 C 252.082031 99.773438 264.839844 92.269531 269.988281 89.578125 C 271.355469 88.859375 273.375 87.796875 274.476562 87.214844 C 286.621094 80.78125 291.324219 79.074219 293.921875 80.167969 C 294.898438 80.578125 296.140625 82.027344 297.390625 84.21875 C 297.992188 85.269531 299.125 86.875 299.914062 87.785156 C 303.054688 91.421875 303.351562 91.925781 303.335938 93.570312 C 303.304688 96.6875 300.269531 100.183594 293.757812 104.605469 C 289.882812 107.238281 281.410156 111.828125 275.109375 114.707031 C 273.660156 115.371094 271.527344 116.359375 270.367188 116.902344 C 269.207031 117.449219 266.125 118.800781 263.519531 119.90625 C 260.910156 121.011719 258.703125 121.984375 258.609375 122.070312 C 258.519531 122.152344 259.375 123.222656 260.507812 124.441406 C 261.640625 125.664062 264.269531 128.488281 266.351562 130.722656 C 273.359375 138.246094 278.277344 143.8125 280.804688 147.082031 C 281.433594 147.894531 282.003906 148.605469 282.070312 148.664062 C 282.382812 148.929688 283.550781 150.804688 284.238281 152.144531 C 285.277344 154.171875 285.398438 154.988281 284.765625 155.679688 C 284.175781 156.324219 283.136719 156.488281 281.292969 156.230469 Z M 281.292969 156.230469 "/>
</g>
</svg>
